<svg xmlns="http://www.w3.org/2000/svg" xmlns:xlink="http://www.w3.org/1999/xlink" width="200" zoomAndPan="magnify" viewBox="0 0 150 74.999997" height="100" preserveAspectRatio="xMidYMid meet" version="1.0"><defs><g/><clipPath id="26ac4e039e"><path d="M 112.3125 23.953125 L 140.8125 23.953125 L 140.8125 52.453125 L 112.3125 52.453125 Z M 112.3125 23.953125 " clip-rule="nonzero"/></clipPath></defs><g clip-path="url(#26ac4e039e)"><path fill="#0f939c" d="M 112.3125 23.953125 L 141.175781 23.953125 L 141.175781 52.816406 L 112.3125 52.816406 Z M 112.3125 23.953125 " fill-opacity="1" fill-rule="nonzero"/></g><g fill="#000000" fill-opacity="1"><g transform="translate(114.722634, 51.217317)"><g><path d="M 15.453125 -17.375 L 21.5625 -25.359375 L 26.359375 -25.359375 L 16.890625 -13.984375 L 22.84375 0 L 12.984375 0 L 9.578125 -7.953125 L 3.4375 0 L -1.359375 0 L 8.0625 -11.546875 L 2.203125 -25.359375 L 12.0625 -25.359375 Z M 15.453125 -17.375 "/></g></g></g><g fill="#ffffff" fill-opacity="1"><g transform="translate(2.68747, 47.364137)"><g><path d="M 17.875 -14.28125 C 17.875 -13.71875 17.789062 -13.210938 17.625 -12.765625 C 17.457031 -12.316406 17.226562 -11.914062 16.9375 -11.5625 C 16.644531 -11.21875 16.304688 -10.910156 15.921875 -10.640625 C 15.535156 -10.367188 15.109375 -10.117188 14.640625 -9.890625 C 14.847656 -9.804688 15.097656 -9.679688 15.390625 -9.515625 C 15.679688 -9.347656 15.960938 -9.117188 16.234375 -8.828125 C 16.503906 -8.535156 16.734375 -8.160156 16.921875 -7.703125 C 17.109375 -7.253906 17.203125 -6.695312 17.203125 -6.03125 C 17.203125 -5.15625 17.015625 -4.347656 16.640625 -3.609375 C 16.273438 -2.867188 15.726562 -2.234375 15 -1.703125 C 14.269531 -1.171875 13.375 -0.753906 12.3125 -0.453125 C 11.257812 -0.148438 10.039062 0 8.65625 0 L 0 0 L 3.9375 -18.515625 L 11.609375 -18.515625 C 12.359375 -18.515625 13.109375 -18.457031 13.859375 -18.34375 C 14.609375 -18.238281 15.28125 -18.03125 15.875 -17.71875 C 16.46875 -17.414062 16.945312 -16.984375 17.3125 -16.421875 C 17.6875 -15.867188 17.875 -15.15625 17.875 -14.28125 Z M 9.9375 -10.765625 C 10.363281 -10.765625 10.726562 -10.890625 11.03125 -11.140625 C 11.332031 -11.390625 11.582031 -11.703125 11.78125 -12.078125 C 11.976562 -12.460938 12.125 -12.875 12.21875 -13.3125 C 12.3125 -13.75 12.359375 -14.140625 12.359375 -14.484375 C 12.359375 -15.054688 12.226562 -15.539062 11.96875 -15.9375 C 11.707031 -16.332031 11.296875 -16.53125 10.734375 -16.53125 L 9.859375 -16.53125 L 8.59375 -10.765625 Z M 7.84375 -1.84375 C 8.425781 -1.84375 8.910156 -2.003906 9.296875 -2.328125 C 9.691406 -2.660156 10.015625 -3.066406 10.265625 -3.546875 C 10.515625 -4.035156 10.691406 -4.546875 10.796875 -5.078125 C 10.910156 -5.617188 10.96875 -6.09375 10.96875 -6.5 C 10.96875 -7.175781 10.828125 -7.710938 10.546875 -8.109375 C 10.265625 -8.515625 9.8125 -8.71875 9.1875 -8.71875 L 8.109375 -8.71875 L 6.671875 -1.84375 Z M 7.84375 -1.84375 "/></g></g></g><g fill="#ffffff" fill-opacity="1"><g transform="translate(20.821315, 47.364137)"><g><path d="M 5.625 0 L -0.296875 0 L 2.359375 -12.53125 L 8.34375 -12.53125 Z M 9.09375 -16.359375 C 9.09375 -15.910156 9 -15.519531 8.8125 -15.1875 C 8.632812 -14.851562 8.394531 -14.570312 8.09375 -14.34375 C 7.789062 -14.113281 7.441406 -13.9375 7.046875 -13.8125 C 6.660156 -13.695312 6.265625 -13.640625 5.859375 -13.640625 C 5.078125 -13.640625 4.425781 -13.820312 3.90625 -14.1875 C 3.382812 -14.5625 3.125 -15.148438 3.125 -15.953125 C 3.125 -16.378906 3.207031 -16.757812 3.375 -17.09375 C 3.550781 -17.4375 3.789062 -17.71875 4.09375 -17.9375 C 4.394531 -18.164062 4.742188 -18.335938 5.140625 -18.453125 C 5.546875 -18.566406 5.960938 -18.625 6.390625 -18.625 C 7.140625 -18.625 7.773438 -18.4375 8.296875 -18.0625 C 8.828125 -17.695312 9.09375 -17.128906 9.09375 -16.359375 Z M 9.09375 -16.359375 "/></g></g></g><g fill="#ffffff" fill-opacity="1"><g transform="translate(29.363465, 47.364137)"><g><path d="M -0.53125 -2.28125 L 7.265625 -10.578125 L 1.34375 -10.578125 L 1.71875 -12.53125 L 14 -12.53125 L 13.53125 -10.4375 L 5.953125 -1.953125 L 12.390625 -1.953125 L 12.046875 0 L -0.96875 0 Z M -0.53125 -2.28125 "/></g></g></g><g fill="#ffffff" fill-opacity="1"><g transform="translate(43.299122, 47.364137)"><g><path d="M 16.4375 -1.578125 C 15.957031 -1.335938 15.457031 -1.101562 14.9375 -0.875 C 14.425781 -0.65625 13.878906 -0.460938 13.296875 -0.296875 C 12.710938 -0.140625 12.070312 -0.015625 11.375 0.078125 C 10.6875 0.179688 9.9375 0.234375 9.125 0.234375 C 6.519531 0.234375 4.507812 -0.347656 3.09375 -1.515625 C 1.6875 -2.679688 0.984375 -4.625 0.984375 -7.34375 C 0.984375 -8.914062 1.226562 -10.394531 1.71875 -11.78125 C 2.207031 -13.175781 2.925781 -14.394531 3.875 -15.4375 C 4.832031 -16.476562 6.007812 -17.300781 7.40625 -17.90625 C 8.800781 -18.507812 10.40625 -18.8125 12.21875 -18.8125 C 13.070312 -18.8125 13.851562 -18.75 14.5625 -18.625 C 15.269531 -18.507812 15.910156 -18.359375 16.484375 -18.171875 C 17.054688 -17.992188 17.570312 -17.796875 18.03125 -17.578125 C 18.488281 -17.367188 18.898438 -17.164062 19.265625 -16.96875 L 18.21875 -11.546875 L 12.96875 -11.546875 C 12.988281 -11.742188 13.015625 -11.992188 13.046875 -12.296875 C 13.078125 -12.609375 13.101562 -12.925781 13.125 -13.25 C 13.144531 -13.570312 13.160156 -13.890625 13.171875 -14.203125 C 13.191406 -14.515625 13.203125 -14.773438 13.203125 -14.984375 C 13.203125 -15.140625 13.191406 -15.316406 13.171875 -15.515625 C 13.160156 -15.722656 13.113281 -15.925781 13.03125 -16.125 C 12.957031 -16.320312 12.835938 -16.484375 12.671875 -16.609375 C 12.503906 -16.734375 12.285156 -16.796875 12.015625 -16.796875 C 11.503906 -16.796875 11.039062 -16.585938 10.625 -16.171875 C 10.207031 -15.753906 9.832031 -15.195312 9.5 -14.5 C 9.175781 -13.8125 8.882812 -13.03125 8.625 -12.15625 C 8.375 -11.28125 8.164062 -10.390625 8 -9.484375 C 7.832031 -8.585938 7.707031 -7.703125 7.625 -6.828125 C 7.539062 -5.953125 7.5 -5.179688 7.5 -4.515625 C 7.5 -4.328125 7.503906 -4.085938 7.515625 -3.796875 C 7.535156 -3.503906 7.59375 -3.21875 7.6875 -2.9375 C 7.789062 -2.664062 7.941406 -2.429688 8.140625 -2.234375 C 8.347656 -2.046875 8.628906 -1.953125 8.984375 -1.953125 C 9.585938 -1.953125 10.171875 -2.328125 10.734375 -3.078125 C 11.296875 -3.828125 11.789062 -5.160156 12.21875 -7.078125 L 17.609375 -7.078125 Z M 16.4375 -1.578125 "/></g></g></g><g fill="#ffffff" fill-opacity="1"><g transform="translate(61.928589, 47.364137)"><g><path d="M 2.09375 -11.453125 C 3.09375 -11.941406 4.109375 -12.296875 5.140625 -12.515625 C 6.179688 -12.742188 7.34375 -12.859375 8.625 -12.859375 C 9.875 -12.859375 10.90625 -12.757812 11.71875 -12.5625 C 12.539062 -12.375 13.191406 -12.09375 13.671875 -11.71875 C 14.160156 -11.351562 14.5 -10.914062 14.6875 -10.40625 C 14.882812 -9.90625 14.984375 -9.332031 14.984375 -8.6875 C 14.984375 -8.320312 14.957031 -7.925781 14.90625 -7.5 C 14.863281 -7.070312 14.8125 -6.710938 14.75 -6.421875 L 13.375 0 L 8.6875 0 L 8.15625 -1.859375 L 7.984375 -1.859375 C 7.367188 -1.179688 6.644531 -0.660156 5.8125 -0.296875 C 4.988281 0.0546875 4.171875 0.234375 3.359375 0.234375 C 2.890625 0.234375 2.429688 0.164062 1.984375 0.03125 C 1.535156 -0.101562 1.132812 -0.3125 0.78125 -0.59375 C 0.4375 -0.875 0.160156 -1.234375 -0.046875 -1.671875 C -0.265625 -2.109375 -0.375 -2.640625 -0.375 -3.265625 C -0.375 -4.273438 -0.0976562 -5.078125 0.453125 -5.671875 C 1.003906 -6.265625 1.734375 -6.710938 2.640625 -7.015625 C 3.546875 -7.316406 4.566406 -7.503906 5.703125 -7.578125 C 6.835938 -7.660156 7.976562 -7.703125 9.125 -7.703125 C 9.164062 -7.890625 9.210938 -8.160156 9.265625 -8.515625 C 9.328125 -8.878906 9.359375 -9.195312 9.359375 -9.46875 C 9.359375 -9.820312 9.265625 -10.148438 9.078125 -10.453125 C 8.898438 -10.753906 8.519531 -10.90625 7.9375 -10.90625 C 7.25 -10.90625 6.742188 -10.703125 6.421875 -10.296875 C 6.109375 -9.898438 5.898438 -9.421875 5.796875 -8.859375 L 1.546875 -8.859375 Z M 8.8125 -6.328125 L 8.28125 -6.328125 C 7.71875 -6.328125 7.234375 -6.253906 6.828125 -6.109375 C 6.429688 -5.960938 6.113281 -5.769531 5.875 -5.53125 C 5.632812 -5.300781 5.453125 -5.039062 5.328125 -4.75 C 5.210938 -4.457031 5.15625 -4.164062 5.15625 -3.875 C 5.15625 -3.40625 5.273438 -3.054688 5.515625 -2.828125 C 5.765625 -2.597656 6.054688 -2.484375 6.390625 -2.484375 C 6.796875 -2.484375 7.195312 -2.628906 7.59375 -2.921875 C 7.988281 -3.210938 8.238281 -3.597656 8.34375 -4.078125 Z M 8.8125 -6.328125 "/></g></g></g><g fill="#ffffff" fill-opacity="1"><g transform="translate(78.02165, 47.364137)"><g><path d="M 2.359375 -12.53125 L 7.109375 -12.53125 L 7.546875 -10.34375 L 7.75 -10.34375 C 8.195312 -11.050781 8.769531 -11.644531 9.46875 -12.125 C 10.175781 -12.613281 11.101562 -12.859375 12.25 -12.859375 C 12.320312 -12.859375 12.441406 -12.851562 12.609375 -12.84375 C 12.773438 -12.832031 12.957031 -12.800781 13.15625 -12.75 C 13.363281 -12.707031 13.578125 -12.640625 13.796875 -12.546875 C 14.023438 -12.460938 14.25 -12.34375 14.46875 -12.1875 L 13.171875 -6.1875 L 10 -6.1875 C 9.957031 -7.382812 9.847656 -8.222656 9.671875 -8.703125 C 9.503906 -9.179688 9.222656 -9.421875 8.828125 -9.421875 C 8.640625 -9.421875 8.429688 -9.375 8.203125 -9.28125 C 7.984375 -9.195312 7.753906 -9.007812 7.515625 -8.71875 L 5.65625 0 L -0.296875 0 Z M 2.359375 -12.53125 "/></g></g></g><g fill="#ffffff" fill-opacity="1"><g transform="translate(92.103071, 47.364137)"><g><path d="M 12.125 -19.59375 L 18.109375 -19.59375 L 13.9375 0 L 9.21875 0 L 8.6875 -1.859375 L 8.484375 -1.859375 C 8.367188 -1.691406 8.1875 -1.484375 7.9375 -1.234375 C 7.695312 -0.992188 7.390625 -0.757812 7.015625 -0.53125 C 6.648438 -0.3125 6.210938 -0.128906 5.703125 0.015625 C 5.203125 0.160156 4.625 0.234375 3.96875 0.234375 C 3.28125 0.234375 2.695312 0.132812 2.21875 -0.0625 C 1.75 -0.269531 1.363281 -0.546875 1.0625 -0.890625 C 0.757812 -1.242188 0.539062 -1.671875 0.40625 -2.171875 C 0.269531 -2.671875 0.203125 -3.210938 0.203125 -3.796875 C 0.203125 -4.046875 0.222656 -4.445312 0.265625 -5 C 0.304688 -5.550781 0.398438 -6.160156 0.546875 -6.828125 C 0.691406 -7.503906 0.90625 -8.195312 1.1875 -8.90625 C 1.46875 -9.613281 1.84375 -10.257812 2.3125 -10.84375 C 2.789062 -11.425781 3.378906 -11.90625 4.078125 -12.28125 C 4.773438 -12.664062 5.625 -12.859375 6.625 -12.859375 C 6.925781 -12.859375 7.253906 -12.828125 7.609375 -12.765625 C 7.960938 -12.710938 8.296875 -12.609375 8.609375 -12.453125 C 8.929688 -12.296875 9.21875 -12.070312 9.46875 -11.78125 C 9.726562 -11.488281 9.914062 -11.109375 10.03125 -10.640625 L 10.234375 -10.640625 Z M 8.578125 -10 C 8.109375 -10 7.71875 -9.738281 7.40625 -9.21875 C 7.09375 -8.707031 6.835938 -8.113281 6.640625 -7.4375 C 6.453125 -6.757812 6.3125 -6.078125 6.21875 -5.390625 C 6.132812 -4.710938 6.09375 -4.207031 6.09375 -3.875 C 6.09375 -3.488281 6.148438 -3.160156 6.265625 -2.890625 C 6.378906 -2.628906 6.601562 -2.5 6.9375 -2.5 C 7.132812 -2.5 7.320312 -2.539062 7.5 -2.625 C 7.6875 -2.71875 7.863281 -2.828125 8.03125 -2.953125 C 8.195312 -3.085938 8.335938 -3.222656 8.453125 -3.359375 C 8.566406 -3.492188 8.664062 -3.609375 8.75 -3.703125 L 9.890625 -9.015625 C 9.753906 -9.222656 9.570312 -9.4375 9.34375 -9.65625 C 9.125 -9.882812 8.867188 -10 8.578125 -10 Z M 8.578125 -10 "/></g></g></g></svg>